<?xml version="1.0" encoding="UTF-8" standalone="no"?>
<!DOCTYPE svg PUBLIC "-//W3C//DTD SVG 1.1//EN"
 "http://www.w3.org/Graphics/SVG/1.1/DTD/svg11.dtd">
<!-- Generated by graphviz version 2.40.1 (20161225.0304)
 -->
<!-- Title: controllers_diagram Pages: 1 -->
<svg width="453pt" height="339pt"
 viewBox="0.00 0.00 453.38 339.00" xmlns="http://www.w3.org/2000/svg" xmlns:xlink="http://www.w3.org/1999/xlink">
<g id="graph0" class="graph" transform="scale(1 1) rotate(0) translate(4 335)">
<title>controllers_diagram</title>
<polygon fill="transparent" stroke="transparent" points="-4,4 -4,-335 449.3755,-335 449.3755,4 -4,4"/>
<!-- _diagram_info -->
<g id="node1" class="node">
<title>_diagram_info</title>
<text text-anchor="start" x="246" y="-313.6" font-family="Times,serif" font-size="13.00" fill="#000000">Controllers diagram</text>
<text text-anchor="start" x="246" y="-300.6" font-family="Times,serif" font-size="13.00" fill="#000000">Date: Feb 13 2019 &#45; 15:01</text>
<text text-anchor="start" x="246" y="-287.6" font-family="Times,serif" font-size="13.00" fill="#000000">Migration version: 20190213174150</text>
<text text-anchor="start" x="246" y="-274.6" font-family="Times,serif" font-size="13.00" fill="#000000">Generated by RailRoady 1.5.3</text>
<text text-anchor="start" x="246" y="-261.6" font-family="Times,serif" font-size="13.00" fill="#000000">http://railroady.prestonlee.com</text>
</g>
<!-- ApplicationController -->
<g id="node2" class="node">
<title>ApplicationController</title>
<path fill="none" stroke="#000000" d="M12,-238.5C12,-238.5 127.6416,-238.5 127.6416,-238.5 133.6416,-238.5 139.6416,-244.5 139.6416,-250.5 139.6416,-250.5 139.6416,-318.5 139.6416,-318.5 139.6416,-324.5 133.6416,-330.5 127.6416,-330.5 127.6416,-330.5 12,-330.5 12,-330.5 6,-330.5 0,-324.5 0,-318.5 0,-318.5 0,-250.5 0,-250.5 0,-244.5 6,-238.5 12,-238.5"/>
<text text-anchor="middle" x="69.8208" y="-315.3" font-family="Times,serif" font-size="14.00" fill="#000000">ApplicationController</text>
<polyline fill="none" stroke="#000000" points="0,-308.5 139.6416,-308.5 "/>
<polyline fill="none" stroke="#000000" points="0,-284.5 139.6416,-284.5 "/>
<polyline fill="none" stroke="#000000" points="0,-260.5 139.6416,-260.5 "/>
<text text-anchor="start" x="8" y="-245.3" font-family="Times,serif" font-size="14.00" fill="#000000">_layout</text>
</g>
<!-- ProyectsController -->
<g id="node3" class="node">
<title>ProyectsController</title>
<path fill="none" stroke="#000000" d="M29,-.5C29,-.5 126.7588,-.5 126.7588,-.5 132.7588,-.5 138.7588,-6.5 138.7588,-12.5 138.7588,-12.5 138.7588,-190.5 138.7588,-190.5 138.7588,-196.5 132.7588,-202.5 126.7588,-202.5 126.7588,-202.5 29,-202.5 29,-202.5 23,-202.5 17,-196.5 17,-190.5 17,-190.5 17,-12.5 17,-12.5 17,-6.5 23,-.5 29,-.5"/>
<text text-anchor="middle" x="77.8794" y="-187.3" font-family="Times,serif" font-size="14.00" fill="#000000">ProyectsController</text>
<polyline fill="none" stroke="#000000" points="17,-180.5 138.7588,-180.5 "/>
<text text-anchor="start" x="25" y="-165.3" font-family="Times,serif" font-size="14.00" fill="#000000">create</text>
<text text-anchor="start" x="25" y="-151.3" font-family="Times,serif" font-size="14.00" fill="#000000">destroy</text>
<text text-anchor="start" x="25" y="-137.3" font-family="Times,serif" font-size="14.00" fill="#000000">edit</text>
<text text-anchor="start" x="25" y="-123.3" font-family="Times,serif" font-size="14.00" fill="#000000">index</text>
<text text-anchor="start" x="25" y="-109.3" font-family="Times,serif" font-size="14.00" fill="#000000">new</text>
<text text-anchor="start" x="25" y="-95.3" font-family="Times,serif" font-size="14.00" fill="#000000">show</text>
<text text-anchor="start" x="25" y="-81.3" font-family="Times,serif" font-size="14.00" fill="#000000">update</text>
<polyline fill="none" stroke="#000000" points="17,-74.5 138.7588,-74.5 "/>
<polyline fill="none" stroke="#000000" points="17,-50.5 138.7588,-50.5 "/>
<text text-anchor="start" x="25" y="-35.3" font-family="Times,serif" font-size="14.00" fill="#000000">_layout</text>
<text text-anchor="start" x="25" y="-21.3" font-family="Times,serif" font-size="14.00" fill="#000000">proyect_params</text>
<text text-anchor="start" x="25" y="-7.3" font-family="Times,serif" font-size="14.00" fill="#000000">set_proyect</text>
</g>
<!-- PeopleController -->
<g id="node4" class="node">
<title>PeopleController</title>
<path fill="none" stroke="#000000" d="M182,-17.5C182,-17.5 269.6484,-17.5 269.6484,-17.5 275.6484,-17.5 281.6484,-23.5 281.6484,-29.5 281.6484,-29.5 281.6484,-207.5 281.6484,-207.5 281.6484,-213.5 275.6484,-219.5 269.6484,-219.5 269.6484,-219.5 182,-219.5 182,-219.5 176,-219.5 170,-213.5 170,-207.5 170,-207.5 170,-29.5 170,-29.5 170,-23.5 176,-17.5 182,-17.5"/>
<text text-anchor="middle" x="225.8242" y="-204.3" font-family="Times,serif" font-size="14.00" fill="#000000">PeopleController</text>
<polyline fill="none" stroke="#000000" points="170,-197.5 281.6484,-197.5 "/>
<text text-anchor="start" x="178" y="-182.3" font-family="Times,serif" font-size="14.00" fill="#000000">create</text>
<text text-anchor="start" x="178" y="-168.3" font-family="Times,serif" font-size="14.00" fill="#000000">destroy</text>
<text text-anchor="start" x="178" y="-154.3" font-family="Times,serif" font-size="14.00" fill="#000000">edit</text>
<text text-anchor="start" x="178" y="-140.3" font-family="Times,serif" font-size="14.00" fill="#000000">index</text>
<text text-anchor="start" x="178" y="-126.3" font-family="Times,serif" font-size="14.00" fill="#000000">new</text>
<text text-anchor="start" x="178" y="-112.3" font-family="Times,serif" font-size="14.00" fill="#000000">show</text>
<text text-anchor="start" x="178" y="-98.3" font-family="Times,serif" font-size="14.00" fill="#000000">update</text>
<polyline fill="none" stroke="#000000" points="170,-91.5 281.6484,-91.5 "/>
<polyline fill="none" stroke="#000000" points="170,-67.5 281.6484,-67.5 "/>
<text text-anchor="start" x="178" y="-52.3" font-family="Times,serif" font-size="14.00" fill="#000000">_layout</text>
<text text-anchor="start" x="178" y="-38.3" font-family="Times,serif" font-size="14.00" fill="#000000">person_params</text>
<text text-anchor="start" x="178" y="-24.3" font-family="Times,serif" font-size="14.00" fill="#000000">set_person</text>
</g>
</g>
</svg>
