<?xml version="1.0" encoding="UTF-8" standalone="no"?>
<!DOCTYPE svg PUBLIC "-//W3C//DTD SVG 1.1//EN"
 "http://www.w3.org/Graphics/SVG/1.1/DTD/svg11.dtd">
<!-- Generated by graphviz version 2.40.1 (20161225.0304)
 -->
<!-- Title: models_diagram Pages: 1 -->
<svg width="562pt" height="225pt"
 viewBox="0.00 0.00 562.08 225.00" xmlns="http://www.w3.org/2000/svg" xmlns:xlink="http://www.w3.org/1999/xlink">
<g id="graph0" class="graph" transform="scale(1 1) rotate(0) translate(4 221)">
<title>models_diagram</title>
<polygon fill="transparent" stroke="transparent" points="-4,4 -4,-221 558.0835,-221 558.0835,4 -4,4"/>
<!-- _diagram_info -->
<g id="node1" class="node">
<title>_diagram_info</title>
<text text-anchor="start" x="8" y="-202.6" font-family="Times,serif" font-size="13.00" fill="#000000">Models diagram</text>
<text text-anchor="start" x="8" y="-189.6" font-family="Times,serif" font-size="13.00" fill="#000000">Date: Feb 13 2019 &#45; 15:01</text>
<text text-anchor="start" x="8" y="-176.6" font-family="Times,serif" font-size="13.00" fill="#000000">Migration version: 20190213174150</text>
<text text-anchor="start" x="8" y="-163.6" font-family="Times,serif" font-size="13.00" fill="#000000">Generated by RailRoady 1.5.3</text>
<text text-anchor="start" x="8" y="-150.6" font-family="Times,serif" font-size="13.00" fill="#000000">http://railroady.prestonlee.com</text>
</g>
<!-- Work -->
<g id="node2" class="node">
<title>Work</title>
<ellipse fill="none" stroke="#000000" cx="258.6877" cy="-18" rx="29.5766" ry="18"/>
<text text-anchor="middle" x="258.6877" y="-13.8" font-family="Times,serif" font-size="14.00" fill="#000000">Work</text>
</g>
<!-- Admin -->
<g id="node3" class="node">
<title>Admin</title>
<ellipse fill="none" stroke="#000000" cx="346.6877" cy="-180.5" rx="34.8458" ry="18"/>
<text text-anchor="middle" x="346.6877" y="-176.3" font-family="Times,serif" font-size="14.00" fill="#000000">Admin</text>
</g>
<!-- Person -->
<g id="node4" class="node">
<title>Person</title>
<ellipse fill="none" stroke="#000000" cx="259.6877" cy="-180.5" rx="34.3614" ry="18"/>
<text text-anchor="middle" x="259.6877" y="-176.3" font-family="Times,serif" font-size="14.00" fill="#000000">Person</text>
</g>
<!-- Person&#45;&gt;Work -->
<g id="edge1" class="edge">
<title>Person&#45;&gt;Work</title>
<path fill="none" stroke="#3717be" d="M252.7332,-154.5863C247.7035,-132.6165 242.3336,-100.2637 245.6877,-72 246.7219,-63.2862 248.6634,-53.944 250.7367,-45.5212"/>
<ellipse fill="none" stroke="#3717be" cx="253.6916" cy="-158.5784" rx="4" ry="4"/>
<polygon fill="#3717be" stroke="#3717be" points="250.747,-45.4816 257.6321,-36.9467 252.0128,-40.6445 253.2787,-35.8074 253.2787,-35.8074 253.2787,-35.8074 252.0128,-40.6445 248.9253,-34.6681 250.747,-45.4816 250.747,-45.4816"/>
</g>
<!-- Proyect -->
<g id="node5" class="node">
<title>Proyect</title>
<ellipse fill="none" stroke="#000000" cx="291.6877" cy="-90" rx="37.2421" ry="18"/>
<text text-anchor="middle" x="291.6877" y="-85.8" font-family="Times,serif" font-size="14.00" fill="#000000">Proyect</text>
</g>
<!-- Person&#45;&gt;Proyect -->
<g id="edge2" class="edge">
<title>Person&#45;&gt;Proyect</title>
<path fill="none" stroke="#50e3b3" d="M269.4002,-153.032C273.3719,-141.7996 277.9582,-128.8288 281.9341,-117.5845"/>
<polygon fill="#50e3b3" stroke="#50e3b3" points="269.3436,-153.1921 261.7673,-161.1199 267.6768,-157.9061 266.0099,-162.6201 266.0099,-162.6201 266.0099,-162.6201 267.6768,-157.9061 270.2525,-164.1203 269.3436,-153.1921 269.3436,-153.1921"/>
<polygon fill="#50e3b3" stroke="#50e3b3" points="282.045,-117.2707 289.6213,-109.3429 283.7119,-112.5567 285.3787,-107.8427 285.3787,-107.8427 285.3787,-107.8427 283.7119,-112.5567 281.1361,-106.3426 282.045,-117.2707 282.045,-117.2707"/>
</g>
<!-- Proyect&#45;&gt;Work -->
<g id="edge3" class="edge">
<title>Proyect&#45;&gt;Work</title>
<path fill="none" stroke="#283a68" d="M280.1007,-64.7192C277.1096,-58.1931 273.8815,-51.1499 270.8614,-44.5607"/>
<ellipse fill="none" stroke="#283a68" cx="281.8638" cy="-68.566" rx="4" ry="4"/>
<polygon fill="#283a68" stroke="#283a68" points="270.8039,-44.4352 270.7281,-33.4696 268.7206,-39.8899 266.6373,-35.3446 266.6373,-35.3446 266.6373,-35.3446 268.7206,-39.8899 262.5465,-37.2196 270.8039,-44.4352 270.8039,-44.4352"/>
</g>
<!-- ApplicationRecord -->
<g id="node6" class="node">
<title>ApplicationRecord</title>
<ellipse fill="none" stroke="#000000" cx="476.6877" cy="-180.5" rx="77.2916" ry="18"/>
<text text-anchor="middle" x="476.6877" y="-176.3" font-family="Times,serif" font-size="14.00" fill="#000000">ApplicationRecord</text>
</g>
</g>
</svg>
