<?xml version="1.0" encoding="UTF-8" standalone="no"?>
<!DOCTYPE svg PUBLIC "-//W3C//DTD SVG 1.1//EN"
 "http://www.w3.org/Graphics/SVG/1.1/DTD/svg11.dtd">
<!-- Generated by graphviz version 2.40.1 (20161225.0304)
 -->
<!-- Title: models_diagram Pages: 1 -->
<svg width="991pt" height="495pt"
 viewBox="0.00 0.00 991.08 495.00" xmlns="http://www.w3.org/2000/svg" xmlns:xlink="http://www.w3.org/1999/xlink">
<g id="graph0" class="graph" transform="scale(1 1) rotate(0) translate(4 491)">
<title>models_diagram</title>
<polygon fill="transparent" stroke="transparent" points="-4,4 -4,-491 987.0835,-491 987.0835,4 -4,4"/>
<!-- _diagram_info -->
<g id="node1" class="node">
<title>_diagram_info</title>
<text text-anchor="start" x="8" y="-437.6" font-family="Times,serif" font-size="13.00" fill="#000000">Models diagram</text>
<text text-anchor="start" x="8" y="-424.6" font-family="Times,serif" font-size="13.00" fill="#000000">Date: Feb 13 2019 &#45; 15:01</text>
<text text-anchor="start" x="8" y="-411.6" font-family="Times,serif" font-size="13.00" fill="#000000">Migration version: 20190213174150</text>
<text text-anchor="start" x="8" y="-398.6" font-family="Times,serif" font-size="13.00" fill="#000000">Generated by RailRoady 1.5.3</text>
<text text-anchor="start" x="8" y="-385.6" font-family="Times,serif" font-size="13.00" fill="#000000">http://railroady.prestonlee.com</text>
</g>
<!-- Work -->
<g id="node2" class="node">
<title>Work</title>
<path fill="none" stroke="#000000" d="M237.8254,-.5C237.8254,-.5 461.55,-.5 461.55,-.5 467.55,-.5 473.55,-6.5 473.55,-12.5 473.55,-12.5 473.55,-144.5 473.55,-144.5 473.55,-150.5 467.55,-156.5 461.55,-156.5 461.55,-156.5 237.8254,-156.5 237.8254,-156.5 231.8254,-156.5 225.8254,-150.5 225.8254,-144.5 225.8254,-144.5 225.8254,-12.5 225.8254,-12.5 225.8254,-6.5 231.8254,-.5 237.8254,-.5"/>
<text text-anchor="middle" x="349.6877" y="-141.3" font-family="Times,serif" font-size="14.00" fill="#000000">Work</text>
<polyline fill="none" stroke="#000000" points="225.8254,-134.5 473.55,-134.5 "/>
<text text-anchor="start" x="233.8254" y="-119.3" font-family="Times,serif" font-size="14.00" fill="#000000">updated_at :timestamp without time zone</text>
<text text-anchor="start" x="233.8254" y="-105.3" font-family="Times,serif" font-size="14.00" fill="#000000">person_id :bigint</text>
<text text-anchor="start" x="233.8254" y="-91.3" font-family="Times,serif" font-size="14.00" fill="#000000">proyect_id :bigint</text>
<text text-anchor="start" x="233.8254" y="-77.3" font-family="Times,serif" font-size="14.00" fill="#000000">fee :integer</text>
<text text-anchor="start" x="233.8254" y="-63.3" font-family="Times,serif" font-size="14.00" fill="#000000">finished :boolean</text>
<text text-anchor="start" x="233.8254" y="-49.3" font-family="Times,serif" font-size="14.00" fill="#000000">start_date :character varying</text>
<text text-anchor="start" x="233.8254" y="-35.3" font-family="Times,serif" font-size="14.00" fill="#000000">finish_date :character varying</text>
<text text-anchor="start" x="233.8254" y="-21.3" font-family="Times,serif" font-size="14.00" fill="#000000">created_at :timestamp without time zone</text>
<text text-anchor="start" x="233.8254" y="-7.3" font-family="Times,serif" font-size="14.00" fill="#000000">id :bigint</text>
</g>
<!-- Admin -->
<g id="node3" class="node">
<title>Admin</title>
<path fill="none" stroke="#000000" d="M503.053,-344.5C503.053,-344.5 798.3225,-344.5 798.3225,-344.5 804.3225,-344.5 810.3225,-350.5 810.3225,-356.5 810.3225,-356.5 810.3225,-474.5 810.3225,-474.5 810.3225,-480.5 804.3225,-486.5 798.3225,-486.5 798.3225,-486.5 503.053,-486.5 503.053,-486.5 497.053,-486.5 491.053,-480.5 491.053,-474.5 491.053,-474.5 491.053,-356.5 491.053,-356.5 491.053,-350.5 497.053,-344.5 503.053,-344.5"/>
<text text-anchor="middle" x="650.6877" y="-471.3" font-family="Times,serif" font-size="14.00" fill="#000000">Admin</text>
<polyline fill="none" stroke="#000000" points="491.053,-464.5 810.3225,-464.5 "/>
<text text-anchor="start" x="499.053" y="-449.3" font-family="Times,serif" font-size="14.00" fill="#000000">updated_at :timestamp without time zone</text>
<text text-anchor="start" x="499.053" y="-435.3" font-family="Times,serif" font-size="14.00" fill="#000000">email :character varying</text>
<text text-anchor="start" x="499.053" y="-421.3" font-family="Times,serif" font-size="14.00" fill="#000000">encrypted_password :character varying</text>
<text text-anchor="start" x="499.053" y="-407.3" font-family="Times,serif" font-size="14.00" fill="#000000">reset_password_token :character varying</text>
<text text-anchor="start" x="499.053" y="-393.3" font-family="Times,serif" font-size="14.00" fill="#000000">reset_password_sent_at :timestamp without time zone</text>
<text text-anchor="start" x="499.053" y="-379.3" font-family="Times,serif" font-size="14.00" fill="#000000">remember_created_at :timestamp without time zone</text>
<text text-anchor="start" x="499.053" y="-365.3" font-family="Times,serif" font-size="14.00" fill="#000000">created_at :timestamp without time zone</text>
<text text-anchor="start" x="499.053" y="-351.3" font-family="Times,serif" font-size="14.00" fill="#000000">id :bigint</text>
</g>
<!-- Person -->
<g id="node4" class="node">
<title>Person</title>
<path fill="none" stroke="#000000" d="M237.8254,-358.5C237.8254,-358.5 461.55,-358.5 461.55,-358.5 467.55,-358.5 473.55,-364.5 473.55,-370.5 473.55,-370.5 473.55,-460.5 473.55,-460.5 473.55,-466.5 467.55,-472.5 461.55,-472.5 461.55,-472.5 237.8254,-472.5 237.8254,-472.5 231.8254,-472.5 225.8254,-466.5 225.8254,-460.5 225.8254,-460.5 225.8254,-370.5 225.8254,-370.5 225.8254,-364.5 231.8254,-358.5 237.8254,-358.5"/>
<text text-anchor="middle" x="349.6877" y="-457.3" font-family="Times,serif" font-size="14.00" fill="#000000">Person</text>
<polyline fill="none" stroke="#000000" points="225.8254,-450.5 473.55,-450.5 "/>
<text text-anchor="start" x="233.8254" y="-435.3" font-family="Times,serif" font-size="14.00" fill="#000000">id :bigint</text>
<text text-anchor="start" x="233.8254" y="-421.3" font-family="Times,serif" font-size="14.00" fill="#000000">name :character varying</text>
<text text-anchor="start" x="233.8254" y="-407.3" font-family="Times,serif" font-size="14.00" fill="#000000">email :character varying</text>
<text text-anchor="start" x="233.8254" y="-393.3" font-family="Times,serif" font-size="14.00" fill="#000000">created_at :timestamp without time zone</text>
<text text-anchor="start" x="233.8254" y="-379.3" font-family="Times,serif" font-size="14.00" fill="#000000">updated_at :timestamp without time zone</text>
<text text-anchor="start" x="233.8254" y="-365.3" font-family="Times,serif" font-size="14.00" fill="#000000">ocupation :character varying</text>
</g>
<!-- Person&#45;&gt;Work -->
<g id="edge1" class="edge">
<title>Person&#45;&gt;Work</title>
<path fill="none" stroke="#06e7e3" d="M309.0447,-350.9506C302.2832,-337.2533 296.3014,-322.5293 292.6877,-308 280.3514,-258.4 280.9883,-242.7541 292.6877,-193 294.7781,-184.1105 297.6678,-175.1222 301.0461,-166.2963"/>
<ellipse fill="none" stroke="#06e7e3" cx="311.0527" cy="-354.8842" rx="4" ry="4"/>
<polygon fill="#06e7e3" stroke="#06e7e3" points="301.1393,-166.0657 309.0607,-158.4827 303.0141,-161.4305 304.889,-156.7953 304.889,-156.7953 304.889,-156.7953 303.0141,-161.4305 300.7173,-155.108 301.1393,-166.0657 301.1393,-166.0657"/>
</g>
<!-- Proyect -->
<g id="node5" class="node">
<title>Proyect</title>
<path fill="none" stroke="#000000" d="M313.8254,-193.5C313.8254,-193.5 537.55,-193.5 537.55,-193.5 543.55,-193.5 549.55,-199.5 549.55,-205.5 549.55,-205.5 549.55,-295.5 549.55,-295.5 549.55,-301.5 543.55,-307.5 537.55,-307.5 537.55,-307.5 313.8254,-307.5 313.8254,-307.5 307.8254,-307.5 301.8254,-301.5 301.8254,-295.5 301.8254,-295.5 301.8254,-205.5 301.8254,-205.5 301.8254,-199.5 307.8254,-193.5 313.8254,-193.5"/>
<text text-anchor="middle" x="425.6877" y="-292.3" font-family="Times,serif" font-size="14.00" fill="#000000">Proyect</text>
<polyline fill="none" stroke="#000000" points="301.8254,-285.5 549.55,-285.5 "/>
<text text-anchor="start" x="309.8254" y="-270.3" font-family="Times,serif" font-size="14.00" fill="#000000">id :bigint</text>
<text text-anchor="start" x="309.8254" y="-256.3" font-family="Times,serif" font-size="14.00" fill="#000000">name :character varying</text>
<text text-anchor="start" x="309.8254" y="-242.3" font-family="Times,serif" font-size="14.00" fill="#000000">description :text</text>
<text text-anchor="start" x="309.8254" y="-228.3" font-family="Times,serif" font-size="14.00" fill="#000000">budget :integer</text>
<text text-anchor="start" x="309.8254" y="-214.3" font-family="Times,serif" font-size="14.00" fill="#000000">created_at :timestamp without time zone</text>
<text text-anchor="start" x="309.8254" y="-200.3" font-family="Times,serif" font-size="14.00" fill="#000000">updated_at :timestamp without time zone</text>
</g>
<!-- Person&#45;&gt;Proyect -->
<g id="edge2" class="edge">
<title>Person&#45;&gt;Proyect</title>
<path fill="none" stroke="#e4e0e4" d="M380.3624,-348.9037C385.2337,-338.3278 390.272,-327.3894 395.1404,-316.8198"/>
<polygon fill="#e4e0e4" stroke="#e4e0e4" points="380.2392,-349.1713 371.9683,-356.3714 378.1474,-353.7127 376.0556,-358.2541 376.0556,-358.2541 376.0556,-358.2541 378.1474,-353.7127 380.1428,-360.1367 380.2392,-349.1713 380.2392,-349.1713"/>
<polygon fill="#e4e0e4" stroke="#e4e0e4" points="395.1829,-316.7276 403.4538,-309.5274 397.2747,-312.1861 399.3665,-307.6447 399.3665,-307.6447 399.3665,-307.6447 397.2747,-312.1861 395.2793,-305.7621 395.1829,-316.7276 395.1829,-316.7276"/>
</g>
<!-- Proyect&#45;&gt;Work -->
<g id="edge3" class="edge">
<title>Proyect&#45;&gt;Work</title>
<path fill="none" stroke="#997cad" d="M397.0586,-185.7077C394.2426,-179.3346 391.3534,-172.7959 388.4582,-166.2437"/>
<ellipse fill="none" stroke="#997cad" cx="398.7642" cy="-189.5677" rx="4" ry="4"/>
<polygon fill="#997cad" stroke="#997cad" points="388.2617,-165.7988 388.3361,-154.8332 386.2408,-161.2254 384.22,-156.6519 384.22,-156.6519 384.22,-156.6519 386.2408,-161.2254 380.1039,-158.4707 388.2617,-165.7988 388.2617,-165.7988"/>
</g>
<!-- ApplicationRecord -->
<g id="node6" class="node">
<title>ApplicationRecord</title>
<ellipse fill="none" stroke="#000000" cx="905.6877" cy="-415.5" rx="77.2916" ry="18"/>
<text text-anchor="middle" x="905.6877" y="-411.3" font-family="Times,serif" font-size="14.00" fill="#000000">ApplicationRecord</text>
</g>
</g>
</svg>
