<?xml version="1.0" encoding="UTF-8" standalone="no"?>
<!DOCTYPE svg PUBLIC "-//W3C//DTD SVG 1.1//EN"
 "http://www.w3.org/Graphics/SVG/1.1/DTD/svg11.dtd">
<!-- Generated by graphviz version 2.40.1 (20161225.0304)
 -->
<!-- Title: models_diagram Pages: 1 -->
<svg width="568pt" height="225pt"
 viewBox="0.00 0.00 568.08 225.00" xmlns="http://www.w3.org/2000/svg" xmlns:xlink="http://www.w3.org/1999/xlink">
<g id="graph0" class="graph" transform="scale(1 1) rotate(0) translate(4 221)">
<title>models_diagram</title>
<polygon fill="transparent" stroke="transparent" points="-4,4 -4,-221 564.0835,-221 564.0835,4 -4,4"/>
<!-- _diagram_info -->
<g id="node1" class="node">
<title>_diagram_info</title>
<text text-anchor="start" x="8" y="-202.6" font-family="Times,serif" font-size="13.00" fill="#000000">Models diagram</text>
<text text-anchor="start" x="8" y="-189.6" font-family="Times,serif" font-size="13.00" fill="#000000">Date: Feb 13 2019 &#45; 14:53</text>
<text text-anchor="start" x="8" y="-176.6" font-family="Times,serif" font-size="13.00" fill="#000000">Migration version: 20190213174150</text>
<text text-anchor="start" x="8" y="-163.6" font-family="Times,serif" font-size="13.00" fill="#000000">Generated by RailRoady 1.5.3</text>
<text text-anchor="start" x="8" y="-150.6" font-family="Times,serif" font-size="13.00" fill="#000000">http://railroady.prestonlee.com</text>
</g>
<!-- Work -->
<g id="node2" class="node">
<title>Work</title>
<ellipse fill="none" stroke="#000000" cx="231.6877" cy="-18" rx="29.5766" ry="18"/>
<text text-anchor="middle" x="231.6877" y="-13.8" font-family="Times,serif" font-size="14.00" fill="#000000">Work</text>
</g>
<!-- Admin -->
<g id="node3" class="node">
<title>Admin</title>
<ellipse fill="none" stroke="#000000" cx="352.6877" cy="-180.5" rx="34.8458" ry="18"/>
<text text-anchor="middle" x="352.6877" y="-176.3" font-family="Times,serif" font-size="14.00" fill="#000000">Admin</text>
</g>
<!-- Person -->
<g id="node4" class="node">
<title>Person</title>
<ellipse fill="none" stroke="#000000" cx="293.6877" cy="-90" rx="34.3614" ry="18"/>
<text text-anchor="middle" x="293.6877" y="-85.8" font-family="Times,serif" font-size="14.00" fill="#000000">Person</text>
</g>
<!-- Person&#45;&gt;Work -->
<g id="edge1" class="edge">
<title>Person&#45;&gt;Work</title>
<path fill="none" stroke="#0746e2" d="M274.0649,-67.2122C267.116,-59.1424 259.2814,-50.0443 252.2561,-41.8858"/>
<ellipse fill="none" stroke="#0746e2" cx="276.6978" cy="-70.2697" rx="4" ry="4"/>
<polygon fill="#0746e2" stroke="#0746e2" points="252.0884,-41.6911 248.9731,-31.177 248.8258,-37.9022 245.5632,-34.1134 245.5632,-34.1134 245.5632,-34.1134 248.8258,-37.9022 242.1532,-37.0497 252.0884,-41.6911 252.0884,-41.6911"/>
</g>
<!-- Project -->
<g id="node7" class="node">
<title>Project</title>
<ellipse fill="none" stroke="#000000" cx="314.6877" cy="-18" rx="35.3129" ry="18"/>
<text text-anchor="middle" x="314.6877" y="-13.8" font-family="Times,serif" font-size="14.00" fill="#000000">Project</text>
</g>
<!-- Person&#45;&gt;Project -->
<g id="edge2" class="edge">
<title>Person&#45;&gt;Project</title>
<path fill="none" stroke="#238833" d="M301.696,-62.5431C303.3274,-56.9498 305.044,-51.0644 306.6755,-45.4706"/>
<polygon fill="#238833" stroke="#238833" points="301.6788,-62.6022 294.5588,-70.9422 300.2788,-67.4022 298.8788,-72.2022 298.8788,-72.2022 298.8788,-72.2022 300.2788,-67.4022 303.1988,-73.4623 301.6788,-62.6022 301.6788,-62.6022"/>
<polygon fill="#238833" stroke="#238833" points="306.6836,-45.4426 313.8037,-37.1026 308.0836,-40.6425 309.4837,-35.8425 309.4837,-35.8425 309.4837,-35.8425 308.0836,-40.6425 305.1637,-34.5825 306.6836,-45.4426 306.6836,-45.4426"/>
</g>
<!-- Proyect -->
<g id="node5" class="node">
<title>Proyect</title>
<ellipse fill="none" stroke="#000000" cx="262.6877" cy="-180.5" rx="37.2421" ry="18"/>
<text text-anchor="middle" x="262.6877" y="-176.3" font-family="Times,serif" font-size="14.00" fill="#000000">Proyect</text>
</g>
<!-- Proyect&#45;&gt;Work -->
<g id="edge3" class="edge">
<title>Proyect&#45;&gt;Work</title>
<path fill="none" stroke="#fb35e4" d="M257.7471,-154.6014C252.0936,-124.9663 242.8675,-76.6038 237.0452,-46.0833"/>
<ellipse fill="none" stroke="#fb35e4" cx="258.5022" cy="-158.5596" rx="4" ry="4"/>
<polygon fill="#fb35e4" stroke="#fb35e4" points="237.0131,-45.9148 239.5594,-35.2486 236.0761,-41.0033 235.1391,-36.0919 235.1391,-36.0919 235.1391,-36.0919 236.0761,-41.0033 230.7188,-36.9352 237.0131,-45.9148 237.0131,-45.9148"/>
</g>
<!-- Proyect&#45;&gt;Person -->
<g id="edge4" class="edge">
<title>Proyect&#45;&gt;Person</title>
<path fill="none" stroke="#83e4fe" d="M272.0967,-153.032C275.9442,-141.7996 280.3873,-128.8288 284.2389,-117.5845"/>
<polygon fill="#83e4fe" stroke="#83e4fe" points="272.053,-153.1597 264.5552,-161.1618 270.4327,-157.8899 268.8123,-162.6201 268.8123,-162.6201 268.8123,-162.6201 270.4327,-157.8899 273.0695,-164.0784 272.053,-153.1597 272.053,-153.1597"/>
<polygon fill="#83e4fe" stroke="#83e4fe" points="284.3352,-117.3031 291.833,-109.301 285.9555,-112.5729 287.5759,-107.8427 287.5759,-107.8427 287.5759,-107.8427 285.9555,-112.5729 283.3187,-106.3845 284.3352,-117.3031 284.3352,-117.3031"/>
</g>
<!-- ApplicationRecord -->
<g id="node6" class="node">
<title>ApplicationRecord</title>
<ellipse fill="none" stroke="#000000" cx="482.6877" cy="-180.5" rx="77.2916" ry="18"/>
<text text-anchor="middle" x="482.6877" y="-176.3" font-family="Times,serif" font-size="14.00" fill="#000000">ApplicationRecord</text>
</g>
</g>
</svg>
