<?xml version="1.0" encoding="UTF-8" standalone="no"?>
<!DOCTYPE svg PUBLIC "-//W3C//DTD SVG 1.1//EN"
 "http://www.w3.org/Graphics/SVG/1.1/DTD/svg11.dtd">
<!-- Generated by graphviz version 2.40.1 (20161225.0304)
 -->
<!-- Title: models_diagram Pages: 1 -->
<svg width="991pt" height="495pt"
 viewBox="0.00 0.00 991.08 495.00" xmlns="http://www.w3.org/2000/svg" xmlns:xlink="http://www.w3.org/1999/xlink">
<g id="graph0" class="graph" transform="scale(1 1) rotate(0) translate(4 491)">
<title>models_diagram</title>
<polygon fill="transparent" stroke="transparent" points="-4,4 -4,-491 987.0835,-491 987.0835,4 -4,4"/>
<!-- _diagram_info -->
<g id="node1" class="node">
<title>_diagram_info</title>
<text text-anchor="start" x="8" y="-437.6" font-family="Times,serif" font-size="13.00" fill="#000000">Models diagram</text>
<text text-anchor="start" x="8" y="-424.6" font-family="Times,serif" font-size="13.00" fill="#000000">Date: Feb 13 2019 &#45; 14:53</text>
<text text-anchor="start" x="8" y="-411.6" font-family="Times,serif" font-size="13.00" fill="#000000">Migration version: 20190213174150</text>
<text text-anchor="start" x="8" y="-398.6" font-family="Times,serif" font-size="13.00" fill="#000000">Generated by RailRoady 1.5.3</text>
<text text-anchor="start" x="8" y="-385.6" font-family="Times,serif" font-size="13.00" fill="#000000">http://railroady.prestonlee.com</text>
</g>
<!-- Work -->
<g id="node2" class="node">
<title>Work</title>
<path fill="none" stroke="#000000" d="M161.8254,-.5C161.8254,-.5 385.55,-.5 385.55,-.5 391.55,-.5 397.55,-6.5 397.55,-12.5 397.55,-12.5 397.55,-144.5 397.55,-144.5 397.55,-150.5 391.55,-156.5 385.55,-156.5 385.55,-156.5 161.8254,-156.5 161.8254,-156.5 155.8254,-156.5 149.8254,-150.5 149.8254,-144.5 149.8254,-144.5 149.8254,-12.5 149.8254,-12.5 149.8254,-6.5 155.8254,-.5 161.8254,-.5"/>
<text text-anchor="middle" x="273.6877" y="-141.3" font-family="Times,serif" font-size="14.00" fill="#000000">Work</text>
<polyline fill="none" stroke="#000000" points="149.8254,-134.5 397.55,-134.5 "/>
<text text-anchor="start" x="157.8254" y="-119.3" font-family="Times,serif" font-size="14.00" fill="#000000">updated_at :timestamp without time zone</text>
<text text-anchor="start" x="157.8254" y="-105.3" font-family="Times,serif" font-size="14.00" fill="#000000">person_id :bigint</text>
<text text-anchor="start" x="157.8254" y="-91.3" font-family="Times,serif" font-size="14.00" fill="#000000">proyect_id :bigint</text>
<text text-anchor="start" x="157.8254" y="-77.3" font-family="Times,serif" font-size="14.00" fill="#000000">fee :integer</text>
<text text-anchor="start" x="157.8254" y="-63.3" font-family="Times,serif" font-size="14.00" fill="#000000">finished :boolean</text>
<text text-anchor="start" x="157.8254" y="-49.3" font-family="Times,serif" font-size="14.00" fill="#000000">start_date :character varying</text>
<text text-anchor="start" x="157.8254" y="-35.3" font-family="Times,serif" font-size="14.00" fill="#000000">finish_date :character varying</text>
<text text-anchor="start" x="157.8254" y="-21.3" font-family="Times,serif" font-size="14.00" fill="#000000">created_at :timestamp without time zone</text>
<text text-anchor="start" x="157.8254" y="-7.3" font-family="Times,serif" font-size="14.00" fill="#000000">id :bigint</text>
</g>
<!-- Admin -->
<g id="node3" class="node">
<title>Admin</title>
<path fill="none" stroke="#000000" d="M503.053,-344.5C503.053,-344.5 798.3225,-344.5 798.3225,-344.5 804.3225,-344.5 810.3225,-350.5 810.3225,-356.5 810.3225,-356.5 810.3225,-474.5 810.3225,-474.5 810.3225,-480.5 804.3225,-486.5 798.3225,-486.5 798.3225,-486.5 503.053,-486.5 503.053,-486.5 497.053,-486.5 491.053,-480.5 491.053,-474.5 491.053,-474.5 491.053,-356.5 491.053,-356.5 491.053,-350.5 497.053,-344.5 503.053,-344.5"/>
<text text-anchor="middle" x="650.6877" y="-471.3" font-family="Times,serif" font-size="14.00" fill="#000000">Admin</text>
<polyline fill="none" stroke="#000000" points="491.053,-464.5 810.3225,-464.5 "/>
<text text-anchor="start" x="499.053" y="-449.3" font-family="Times,serif" font-size="14.00" fill="#000000">updated_at :timestamp without time zone</text>
<text text-anchor="start" x="499.053" y="-435.3" font-family="Times,serif" font-size="14.00" fill="#000000">email :character varying</text>
<text text-anchor="start" x="499.053" y="-421.3" font-family="Times,serif" font-size="14.00" fill="#000000">encrypted_password :character varying</text>
<text text-anchor="start" x="499.053" y="-407.3" font-family="Times,serif" font-size="14.00" fill="#000000">reset_password_token :character varying</text>
<text text-anchor="start" x="499.053" y="-393.3" font-family="Times,serif" font-size="14.00" fill="#000000">reset_password_sent_at :timestamp without time zone</text>
<text text-anchor="start" x="499.053" y="-379.3" font-family="Times,serif" font-size="14.00" fill="#000000">remember_created_at :timestamp without time zone</text>
<text text-anchor="start" x="499.053" y="-365.3" font-family="Times,serif" font-size="14.00" fill="#000000">created_at :timestamp without time zone</text>
<text text-anchor="start" x="499.053" y="-351.3" font-family="Times,serif" font-size="14.00" fill="#000000">id :bigint</text>
</g>
<!-- Person -->
<g id="node4" class="node">
<title>Person</title>
<path fill="none" stroke="#000000" d="M313.8254,-193.5C313.8254,-193.5 537.55,-193.5 537.55,-193.5 543.55,-193.5 549.55,-199.5 549.55,-205.5 549.55,-205.5 549.55,-295.5 549.55,-295.5 549.55,-301.5 543.55,-307.5 537.55,-307.5 537.55,-307.5 313.8254,-307.5 313.8254,-307.5 307.8254,-307.5 301.8254,-301.5 301.8254,-295.5 301.8254,-295.5 301.8254,-205.5 301.8254,-205.5 301.8254,-199.5 307.8254,-193.5 313.8254,-193.5"/>
<text text-anchor="middle" x="425.6877" y="-292.3" font-family="Times,serif" font-size="14.00" fill="#000000">Person</text>
<polyline fill="none" stroke="#000000" points="301.8254,-285.5 549.55,-285.5 "/>
<text text-anchor="start" x="309.8254" y="-270.3" font-family="Times,serif" font-size="14.00" fill="#000000">id :bigint</text>
<text text-anchor="start" x="309.8254" y="-256.3" font-family="Times,serif" font-size="14.00" fill="#000000">name :character varying</text>
<text text-anchor="start" x="309.8254" y="-242.3" font-family="Times,serif" font-size="14.00" fill="#000000">email :character varying</text>
<text text-anchor="start" x="309.8254" y="-228.3" font-family="Times,serif" font-size="14.00" fill="#000000">created_at :timestamp without time zone</text>
<text text-anchor="start" x="309.8254" y="-214.3" font-family="Times,serif" font-size="14.00" fill="#000000">updated_at :timestamp without time zone</text>
<text text-anchor="start" x="309.8254" y="-200.3" font-family="Times,serif" font-size="14.00" fill="#000000">ocupation :character varying</text>
</g>
<!-- Person&#45;&gt;Work -->
<g id="edge1" class="edge">
<title>Person&#45;&gt;Work</title>
<path fill="none" stroke="#aa1ffa" d="M369.6719,-187.1136C363.0999,-179.677 356.3134,-171.9974 349.5285,-164.3198"/>
<ellipse fill="none" stroke="#aa1ffa" cx="372.4251" cy="-190.2292" rx="4" ry="4"/>
<polygon fill="#aa1ffa" stroke="#aa1ffa" points="349.3743,-164.1452 346.1242,-153.672 346.0632,-160.3986 342.7522,-156.6519 342.7522,-156.6519 342.7522,-156.6519 346.0632,-160.3986 339.3802,-159.6318 349.3743,-164.1452 349.3743,-164.1452"/>
</g>
<!-- Project -->
<g id="node7" class="node">
<title>Project</title>
<ellipse fill="none" stroke="#000000" cx="450.6877" cy="-78.5" rx="35.3129" ry="18"/>
<text text-anchor="middle" x="450.6877" y="-74.3" font-family="Times,serif" font-size="14.00" fill="#000000">Project</text>
</g>
<!-- Person&#45;&gt;Project -->
<g id="edge2" class="edge">
<title>Person&#45;&gt;Project</title>
<path fill="none" stroke="#cff0da" d="M435.4681,-183.2108C439.3414,-156.5627 443.5808,-127.3957 446.5993,-106.6285"/>
<polygon fill="#cff0da" stroke="#cff0da" points="435.4508,-183.3305 429.5592,-192.5792 434.7316,-188.2785 434.0124,-193.2265 434.0124,-193.2265 434.0124,-193.2265 434.7316,-188.2785 438.4656,-193.8738 435.4508,-183.3305 435.4508,-183.3305"/>
<polygon fill="#cff0da" stroke="#cff0da" points="446.6196,-106.4881 452.5113,-97.2394 447.3389,-101.5401 448.0581,-96.592 448.0581,-96.592 448.0581,-96.592 447.3389,-101.5401 443.6049,-95.9447 446.6196,-106.4881 446.6196,-106.4881"/>
</g>
<!-- Proyect -->
<g id="node5" class="node">
<title>Proyect</title>
<path fill="none" stroke="#000000" d="M237.8254,-358.5C237.8254,-358.5 461.55,-358.5 461.55,-358.5 467.55,-358.5 473.55,-364.5 473.55,-370.5 473.55,-370.5 473.55,-460.5 473.55,-460.5 473.55,-466.5 467.55,-472.5 461.55,-472.5 461.55,-472.5 237.8254,-472.5 237.8254,-472.5 231.8254,-472.5 225.8254,-466.5 225.8254,-460.5 225.8254,-460.5 225.8254,-370.5 225.8254,-370.5 225.8254,-364.5 231.8254,-358.5 237.8254,-358.5"/>
<text text-anchor="middle" x="349.6877" y="-457.3" font-family="Times,serif" font-size="14.00" fill="#000000">Proyect</text>
<polyline fill="none" stroke="#000000" points="225.8254,-450.5 473.55,-450.5 "/>
<text text-anchor="start" x="233.8254" y="-435.3" font-family="Times,serif" font-size="14.00" fill="#000000">id :bigint</text>
<text text-anchor="start" x="233.8254" y="-421.3" font-family="Times,serif" font-size="14.00" fill="#000000">name :character varying</text>
<text text-anchor="start" x="233.8254" y="-407.3" font-family="Times,serif" font-size="14.00" fill="#000000">description :text</text>
<text text-anchor="start" x="233.8254" y="-393.3" font-family="Times,serif" font-size="14.00" fill="#000000">budget :integer</text>
<text text-anchor="start" x="233.8254" y="-379.3" font-family="Times,serif" font-size="14.00" fill="#000000">created_at :timestamp without time zone</text>
<text text-anchor="start" x="233.8254" y="-365.3" font-family="Times,serif" font-size="14.00" fill="#000000">updated_at :timestamp without time zone</text>
</g>
<!-- Proyect&#45;&gt;Work -->
<g id="edge3" class="edge">
<title>Proyect&#45;&gt;Work</title>
<path fill="none" stroke="#3037d9" d="M310.2945,-351.3229C303.3376,-337.4671 296.9625,-322.5871 292.6877,-308 279.3904,-262.6244 274.3242,-210.1921 272.7219,-166.9079"/>
<ellipse fill="none" stroke="#3037d9" cx="312.1448" cy="-354.9127" rx="4" ry="4"/>
<polygon fill="#3037d9" stroke="#3037d9" points="272.7148,-166.6776 276.8987,-156.5413 272.5578,-161.68 272.4009,-156.6825 272.4009,-156.6825 272.4009,-156.6825 272.5578,-161.68 267.9031,-156.8238 272.7148,-166.6776 272.7148,-166.6776"/>
</g>
<!-- Proyect&#45;&gt;Person -->
<g id="edge4" class="edge">
<title>Proyect&#45;&gt;Person</title>
<path fill="none" stroke="#8cae2d" d="M380.3624,-348.9037C385.2337,-338.3278 390.272,-327.3894 395.1404,-316.8198"/>
<polygon fill="#8cae2d" stroke="#8cae2d" points="380.2392,-349.1713 371.9683,-356.3714 378.1474,-353.7127 376.0556,-358.2541 376.0556,-358.2541 376.0556,-358.2541 378.1474,-353.7127 380.1428,-360.1367 380.2392,-349.1713 380.2392,-349.1713"/>
<polygon fill="#8cae2d" stroke="#8cae2d" points="395.1829,-316.7276 403.4538,-309.5274 397.2747,-312.1861 399.3665,-307.6447 399.3665,-307.6447 399.3665,-307.6447 397.2747,-312.1861 395.2793,-305.7621 395.1829,-316.7276 395.1829,-316.7276"/>
</g>
<!-- ApplicationRecord -->
<g id="node6" class="node">
<title>ApplicationRecord</title>
<ellipse fill="none" stroke="#000000" cx="905.6877" cy="-415.5" rx="77.2916" ry="18"/>
<text text-anchor="middle" x="905.6877" y="-411.3" font-family="Times,serif" font-size="14.00" fill="#000000">ApplicationRecord</text>
</g>
</g>
</svg>
